<svg id="Capa_1" enable-background="new 0 0 512 512" height="512" viewBox="0 0 512 512" width="512" xmlns="http://www.w3.org/2000/svg"><g><path d="m480.581 485.396c0 14.693-11.911 26.604-26.604 26.604h-395.955c-14.693 0-26.604-11.911-26.604-26.604v-263.965c0-14.693 11.911-26.604 26.604-26.604h395.955c14.693 0 26.604 11.911 26.604 26.604z" fill="#365e7d"/><path d="m453.978 194.827h-18.065c14.693 0 26.604 11.911 26.604 26.604v263.965c0 14.693-11.911 26.604-26.604 26.604h18.065c14.693 0 26.604-11.911 26.604-26.604v-263.965c0-14.693-11.911-26.604-26.604-26.604z" fill="#2b4d66"/><path d="m443.718 230.244h-364.156c-.797 0-1.447.687-1.447 1.53v243.28c0 .843.649 1.53 1.447 1.53h364.156c.798 0 1.448-.687 1.448-1.53v-243.28c0-.844-.65-1.53-1.448-1.53z" fill="#d3effb"/><path d="m443.718 230.244h-19.326c.798 0 1.448.687 1.448 1.53v243.28c0 .843-.649 1.53-1.448 1.53h19.326c.798 0 1.448-.687 1.448-1.53v-243.28c0-.844-.65-1.53-1.448-1.53z" fill="#b1e4f9"/><g><path d="m54.995 367.449c-4.268 0-7.726-3.459-7.726-7.726v-12.617c0-4.268 3.459-7.726 7.726-7.726s7.726 3.459 7.726 7.726v12.617c0 4.267-3.459 7.726-7.726 7.726z" fill="#2b4d66"/></g><path d="m384.515 438.353c-54.233 17.603-41.129-30.406-74.997-45.227-16.033-7.017-26.609-22.602-26.609-40.103v-28.253h-53.818v27.923c0 17.847-10.335 34.296-26.71 41.395-28.066 12.168-33.508 41.432-66.915 34.665-41.923-8.491-57.352 19.635-57.352 19.635v26.668c0 .843.649 1.529 1.447 1.529h364.156c.798 0 1.448-.687 1.448-1.53v-20.972c-10.311-12.753-29.228-25.929-60.65-15.73z" fill="#f6f1f1"/><path d="m254.21 337.988c8.73 0 15.806 7.077 15.806 15.806v12.447c0 17.501 10.575 33.086 26.609 40.103 33.868 14.822 20.765 62.831 74.998 45.227 39.444-12.803 59.185 11.226 66.93 25.012h5.165c.798 0 1.448-.687 1.448-1.53v-20.972c-.001-.001-.001-.001-.002-.002-24.631-30.453-53.491-16.598-70.404-13.103-27.763 5.73-33.671-10.136-42.914-25.823-10.665-18.102-16.828-18.558-26.754-24.26-9.148-5.256-16.064-13.485-19.586-23.161-4.154-11.411-2.004-18.376-2.598-42.964h-53.818v13.219h25.12z" fill="#dae4ea"/><path d="m189.059 281.218 19.286-20.685h86.201l28.395 20.685-22.386 36.221c-2.816 4.556-7.79 7.329-13.146 7.329h-62.819c-5.356 0-10.33-2.773-13.146-7.329z" fill="#365e7d"/><path d="m309.417 260.533-35.771 56.907c-2.816 4.556-7.79 7.329-13.146 7.329h26.909c5.356 0 10.33-2.773 13.146-7.329l22.386-36.222z" fill="#2b4d66"/><g><path d="m274.48 332.496c-4.268 0-7.726-3.459-7.726-7.726v-19.444c0-4.268 3.459-7.726 7.726-7.726s7.726 3.459 7.726 7.726v19.444c0 4.267-3.459 7.726-7.726 7.726z" fill="#dd636e"/></g><g><path d="m237.521 332.496c-4.268 0-7.726-3.459-7.726-7.726v-19.444c0-4.268 3.459-7.726 7.726-7.726s7.726 3.459 7.726 7.726v19.444c0 4.267-3.459 7.726-7.726 7.726z" fill="#dd636e"/></g><g fill="#dd636e"><path d="m161.592 230.101-47.089 29.971c-.443.282-.688.792-.632 1.314l10.103 93.368c.067.618.538 1.115 1.151 1.215s1.218-.221 1.478-.785l19.904-43.208c.081-.176.199-.333.345-.461l34.592-30.296 6.066-31.719z"/><path d="m350.408 230.101 47.089 29.971c.443.282.688.792.632 1.314l-10.103 93.368c-.067.618-.538 1.115-1.151 1.215s-1.218-.221-1.478-.785l-19.904-43.208c-.081-.176-.199-.333-.345-.461l-34.592-30.296-6.066-31.719z"/></g><g><path d="m324.165 66.873-18.153-10.343h-99.372l-18.804 10.343c-17.964 28.325-27.794 61.451-27.794 95.697v114.946c0 2.045 1.658 3.702 3.702 3.702h184.512c2.045 0 3.702-1.658 3.702-3.702v-114.946c.001-34.247-9.83-67.373-27.793-95.697z" fill="#f6f1f1"/></g><path d="m324.165 66.873-18.153-10.343h-21.972l18.153 10.343c17.964 28.325 27.794 61.451 27.794 95.697v118.648h18.269c2.045 0 3.702-1.658 3.702-3.702v-114.946c.001-34.247-9.83-67.373-27.793-95.697z" fill="#dae4ea"/><circle cx="256" cy="161.421" fill="#d3effb" r="57.104"/><path d="m256 104.317c-3.955 0-7.815.403-11.543 1.168 26.004 5.338 45.561 28.352 45.561 55.936 0 27.583-19.557 50.597-45.561 55.936 3.728.765 7.589 1.168 11.543 1.168 31.537 0 57.104-25.566 57.104-57.104 0-31.537-25.566-57.104-57.104-57.104z" fill="#b1e4f9"/><g><path d="m256 195.974c-19.052 0-34.552-15.5-34.552-34.552s15.5-34.553 34.552-34.553 34.553 15.501 34.553 34.553-15.501 34.552-34.553 34.552zm0-53.653c-10.531 0-19.1 8.568-19.1 19.101 0 10.531 8.568 19.1 19.1 19.1s19.101-8.568 19.101-19.1c-.001-10.533-8.569-19.101-19.101-19.101z" fill="#365e7d"/></g><path d="m324.165 66.873c-9.299-14.663-20.775-28.041-34.201-39.618l-29.825-25.717c-2.378-2.051-5.899-2.051-8.277 0l-29.825 25.717c-13.426 11.577-24.902 24.955-34.201 39.618z" fill="#dd636e"/><path d="m289.964 27.255-29.825-25.717c-2.378-2.051-5.899-2.051-8.277 0l-6.847 5.904 22.978 19.813c13.426 11.577 24.902 24.955 34.201 39.618h21.972c-9.3-14.663-20.776-28.041-34.202-39.618z" fill="#da4a54"/><g><path d="m298.784 288.945c-4.268 0-7.726-3.459-7.726-7.726v-22.683c0-4.268 3.459-7.726 7.726-7.726 4.268 0 7.726 3.459 7.726 7.726v22.683c.001 4.267-3.458 7.726-7.726 7.726z" fill="#dd636e"/></g><g><path d="m213.216 288.945c-4.268 0-7.726-3.459-7.726-7.726v-22.683c0-4.268 3.459-7.726 7.726-7.726s7.726 3.459 7.726 7.726v22.683c0 4.267-3.458 7.726-7.726 7.726z" fill="#dd636e"/></g><g><path d="m171.435 467.125c-3.399 0-6.515-2.262-7.451-5.7-3.847-14.141 4.526-28.776 18.666-32.624 6.846-1.865 14.014-.95 20.177 2.575 6.162 3.525 10.583 9.239 12.447 16.091 1.12 4.117-1.31 8.363-5.428 9.484-4.116 1.116-8.363-1.31-9.484-5.428-.78-2.867-2.63-5.259-5.208-6.733-2.579-1.477-5.58-1.86-8.447-1.078-5.919 1.611-9.423 7.737-7.812 13.657 1.12 4.117-1.31 8.363-5.428 9.484-.677.183-1.36.272-2.032.272z" fill="#dae4ea"/></g><g><path d="m313.076 464.718c-.655 0-1.32-.083-1.983-.26-4.125-1.093-6.583-5.322-5.491-9.447.505-1.909.237-3.901-.756-5.609-.992-1.707-2.591-2.926-4.499-3.432-1.909-.506-3.902-.238-5.611.756-1.707.992-2.926 2.591-3.432 4.499-1.093 4.126-5.328 6.585-9.446 5.492-4.126-1.092-6.585-5.321-5.492-9.446 1.561-5.899 5.327-10.838 10.604-13.905 5.278-3.066 11.433-3.894 17.331-2.333s10.837 5.327 13.904 10.604c3.066 5.276 3.895 11.431 2.333 17.33-.914 3.463-4.042 5.751-7.462 5.751z" fill="#dae4ea"/></g><g><path d="m250.825 392.634c-2.789 0-5.605-1.502-7.15-4.634-1.305-2.646-.616-5.742 1.224-8.048 2.125-2.663 1.888-7.361 1.22-11.062-.6-3.325 1.058-6.645 4.066-8.184 4.678-2.393 10.314.505 11.107 5.7 1.135 7.433.797 16.952-4.487 23.4-1.529 1.863-3.746 2.828-5.98 2.828z" fill="#dae4ea"/></g></g></svg>